<?xml version="1.0" encoding="UTF-8" standalone="no"?>
<svg
   xmlns:dc="http://purl.org/dc/elements/1.1/"
   xmlns:cc="http://creativecommons.org/ns#"
   xmlns:rdf="http://www.w3.org/1999/02/22-rdf-syntax-ns#"
   xmlns:svg="http://www.w3.org/2000/svg"
   xmlns="http://www.w3.org/2000/svg"
   xmlns:sodipodi="http://sodipodi.sourceforge.net/DTD/sodipodi-0.dtd"
   xmlns:inkscape="http://www.inkscape.org/namespaces/inkscape"
   version="1.0"
   width="273"
   height="78"
   viewBox="0 0 218.4 62.4"
   preserveAspectRatio="xMidYMid meet"
   id="svg3083"
   inkscape:version="0.48.5 r10040"
   sodipodi:docname="logo1.svg"
   inkscape:export-filename="/home/krishna/Desktop/crishmaniaProject/img/logo1.png"
   inkscape:export-xdpi="90"
   inkscape:export-ydpi="90">
  <defs
     id="defs3093" />
  <sodipodi:namedview
     pagecolor="#ffffff"
     bordercolor="#666666"
     borderopacity="1"
     objecttolerance="10"
     gridtolerance="10"
     guidetolerance="10"
     inkscape:pageopacity="0"
     inkscape:pageshadow="2"
     inkscape:window-width="1366"
     inkscape:window-height="702"
     id="namedview3091"
     showgrid="false"
     inkscape:zoom="1"
     inkscape:cx="239.39658"
     inkscape:cy="13.209188"
     inkscape:window-x="0"
     inkscape:window-y="27"
     inkscape:window-maximized="1"
     inkscape:current-layer="layer3" />
  <metadata
     id="metadata3085">
Created by potrace 1.13, written by Peter Selinger 2001-2015
<rdf:RDF>
  <cc:Work
     rdf:about="">
    <dc:format>image/svg+xml</dc:format>
    <dc:type
       rdf:resource="http://purl.org/dc/dcmitype/StillImage" />
    <dc:title></dc:title>
  </cc:Work>
</rdf:RDF>
</metadata>
  <text
     xml:space="preserve"
     style="font-size:40px;font-style:normal;font-weight:normal;line-height:2.99999993%;letter-spacing:0px;word-spacing:0px;fill:#000000;fill-opacity:1;stroke:none;font-family:Sans"
     x="488.66504"
     y="37.145267"
     id="text3889"
     sodipodi:linespacing="2.9999999%"
     transform="scale(0.8,0.8)"><tspan
       sodipodi:role="line"
       id="tspan3891"
       x="488.66504"
       y="37.145267" /><tspan
       sodipodi:role="line"
       id="tspan3893"
       x="488.66504"
       y="38.345268" /></text>
  <g
     inkscape:groupmode="layer"
     id="layer2"
     inkscape:label="Layer"
     style="display:inline">
    <rect
       style="fill:#ffffff;fill-opacity:0"
       id="rect4590"
       width="44"
       height="64"
       x="-307"
       y="55"
       transform="scale(0.8,0.8)"
       ry="0" />
    <rect
       style="fill:#ffffff;fill-opacity:0"
       id="rect4592"
       width="74"
       height="0"
       x="-314"
       y="52"
       transform="scale(0.8,0.8)" />
    <rect
       style="fill:#ececec;fill-opacity:0"
       id="rect4596"
       width="73"
       height="62"
       x="-317"
       y="54"
       transform="scale(0.8,0.8)"
       ry="2.4000001" />
    <path
       style="fill:#ececec;fill-opacity:0"
       d="m -283.13724,99.117792 c 0.31927,-0.832004 0.0414,-2.162292 -0.61747,-2.956195 -0.65888,-0.793903 -0.87798,-1.961216 -0.48688,-2.594028 0.51699,-0.836505 0.94575,-0.780221 1.57078,0.206195 1.17426,1.853232 1.11712,6.856766 -0.0783,6.856766 -0.53274,0 -0.7074,-0.680734 -0.38813,-1.512738 z"
       id="path4598"
       inkscape:connector-curvature="0"
       transform="scale(0.8,0.8)" />
    <path
       style="fill:#ececec;fill-opacity:0"
       d="m -283.43126,96.178111 c -0.63416,-0.689236 -0.79547,-1.825571 -0.35932,-2.531269 0.57258,-0.926455 0.98518,-0.670136 1.49206,0.926918 0.84914,2.675382 0.4165,3.288138 -1.13274,1.604351 z"
       id="path4600"
       inkscape:connector-curvature="0"
       transform="scale(0.8,0.8)" />
    <path
       style="fill:#ececec;fill-opacity:0"
       d="m -283.43126,96.178111 c -0.63416,-0.689236 -0.79547,-1.825571 -0.35932,-2.531269 0.57258,-0.926455 0.98518,-0.670136 1.49206,0.926918 0.84914,2.675382 0.4165,3.288138 -1.13274,1.604351 z"
       id="path4602"
       inkscape:connector-curvature="0"
       transform="scale(0.8,0.8)" />
    <path
       style="fill:#ececec;fill-opacity:0"
       d=""
       id="path4604"
       inkscape:connector-curvature="0"
       transform="scale(0.8,0.8)" />
    <path
       style="fill:#ececec;fill-opacity:0"
       d=""
       id="path4606"
       inkscape:connector-curvature="0"
       transform="scale(0.8,0.8)" />
    <path
       style="fill:#ececec;fill-opacity:0"
       d=""
       id="path4608"
       inkscape:connector-curvature="0"
       transform="scale(0.8,0.8)" />
    <path
       style="fill:#ececec;fill-opacity:0"
       d=""
       id="path4610"
       inkscape:connector-curvature="0"
       transform="scale(0.8,0.8)" />
    <path
       style="fill:#ececec;fill-opacity:0"
       d=""
       id="path4612"
       inkscape:connector-curvature="0"
       transform="scale(0.8,0.8)" />
    <rect
       style="fill:#ececec;fill-opacity:0"
       id="rect4614"
       width="31"
       height="4"
       x="-316"
       y="54"
       transform="scale(0.8,0.8)"
       ry="1.9200001" />
    <rect
       style="fill:#ececec;fill-opacity:0"
       id="rect4616"
       width="0"
       height="65"
       x="-309"
       y="41"
       transform="scale(0.8,0.8)"
       ry="0" />
    <rect
       style="fill:#ececec;fill-opacity:0"
       id="rect4618"
       width="68"
       height="66"
       x="-314"
       y="47"
       transform="scale(0.8,0.8)" />
    <rect
       style="fill:#ffffff;fill-opacity:0"
       id="rect4620"
       width="73"
       height="64"
       x="-316"
       y="48"
       transform="scale(0.8,0.8)" />
    <path
       style="fill:#ffffff;fill-opacity:0"
       d="m -275.7805,99.580867 c 0,-5.931954 -5.26296,-11.95034 -10.45034,-11.95034 -0.85231,0 -1.54966,-0.471723 -1.54966,-1.048274 0,-0.576551 -1.4625,-1.683937 -3.25,-2.460858 l -3.25,-1.412584 4.20295,-0.03914 c 4.17122,-0.03885 9.29705,1.617786 9.29705,3.004742 0,0.397569 0.81864,0.936932 1.8192,1.198584 1.00056,0.261652 2.57556,2.069644 3.5,4.01776 1.83134,3.859263 2.28834,11.739773 0.6808,11.739773 -0.55,0 -1,-1.37235 -1,-3.049661 z"
       id="path4622"
       inkscape:connector-curvature="0"
       transform="scale(0.8,0.8)" />
    <path
       style="fill:#ffffff;fill-opacity:0"
       d="m -272.28962,91.5642 c -0.51788,-3.765448 -1.20265,-5.307045 -2.50912,-5.648694 -0.98827,-0.258438 -2.03317,-1.37356 -2.322,-2.478049 -0.28883,-1.104489 -0.99613,-1.717074 -1.57178,-1.361301 -0.57566,0.355773 -1.94082,0.16831 -3.03371,-0.416584 -3.10841,-1.663572 -12.24952,-1.817042 -14.7505,-0.247647 -1.60528,1.007335 -2.68158,1.095804 -4,0.328791 -1.74099,-1.012848 -1.5434,-1.184727 1.69623,-1.475539 0.825,-0.07406 1.5,-0.80965 1.5,-1.63465 0,-1.960167 1.45175,-2.965739 4.30902,-2.984687 1.26996,-0.0084 2.0472,-0.438938 1.72721,-0.956701 -0.32,-0.517764 1.34094,-1.080264 3.69098,-1.25 3.91853,-0.283025 4.24415,-0.515887 3.92739,-2.808612 -0.18997,-1.375 -0.75247,-2.65 -1.25,-2.833333 -0.49753,-0.183334 -0.9046,-0.793979 -0.9046,-1.356989 0,-0.563011 0.66059,-0.770164 1.46798,-0.460341 0.80738,0.309823 1.73394,0.132968 2.05901,-0.393011 0.32508,-0.525979 -0.11051,-0.956326 -0.96797,-0.956326 -0.85746,0 -1.55902,-0.476558 -1.55902,-1.059017 0,-0.582459 0.42742,-0.794856 0.94983,-0.471992 0.5224,0.322864 1.44113,-0.330984 2.04161,-1.452994 2.05018,-3.830804 9.98541,0.14218 9.95452,4.984003 -0.0125,1.956539 -2.4551,5.157525 -3.29484,4.31779 -0.35811,-0.358118 -0.65112,-0.158266 -0.65112,0.444115 0,0.602381 -0.70714,1.802381 -1.57143,2.666666 -1.50622,1.506221 -0.8303,2.120481 1.84926,1.680575 0.4278,-0.07023 1.03845,0.551477 1.35699,1.381579 0.31854,0.830101 1.1805,1.509275 1.91547,1.509275 1.60919,0 4.57837,3.982802 3.84899,5.162968 -0.28452,0.460367 -0.0408,0.837032 0.5417,0.837032 0.58246,0 1.05902,1.035 1.05902,2.3 0,1.265 0.43256,2.732561 0.96125,3.261246 1.44802,1.448024 -1.134,5.884337 -3.63471,6.244994 -1.85821,0.267996 -2.21234,-0.340515 -2.83566,-4.872567 l 0,0 z m 0.13098,-8.248539 c 0.75798,0.290864 1.37814,0.0307 1.37814,-0.578145 0,-0.608844 -0.45,-1.106989 -1,-1.106989 -0.55,0 -1.9375,-0.9375 -3.08333,-2.083333 -1.14584,-1.145834 -2.38263,-1.784041 -2.74843,-1.418239 -0.3658,0.365802 0.0526,1.190802 0.92969,1.833333 0.87713,0.642531 1.47011,2.014553 1.31773,3.048938 -0.19393,1.316401 0.0388,1.564883 0.7755,0.828145 0.5789,-0.578905 1.67272,-0.814574 2.4307,-0.52371 z m -3.62186,-14.685134 c 0,-0.55 -0.47656,-1 -1.05902,-1 -0.58245,0 -0.7809,0.45 -0.44098,1 0.33992,0.55 0.81648,1 1.05902,1 0.24254,0 0.44098,-0.45 0.44098,-1 z m 3,-2.559017 c 0,-0.857459 -0.45,-1.280902 -1,-0.940983 -0.55,0.339919 -1,1.041476 -1,1.559017 0,0.517541 0.45,0.940983 1,0.940983 0.55,0 1,-0.701558 1,-1.559017 z m -3,-1.5 c 0,-0.517541 -0.45,-0.940983 -1,-0.940983 -0.55,0 -1,0.701558 -1,1.559017 0,0.857459 0.45,1.280902 1,0.940983 0.55,-0.339919 1,-1.041476 1,-1.559017 z"
       id="path4624"
       inkscape:connector-curvature="0"
       transform="scale(0.8,0.8)" />
    <path
       style="fill:#ffffff;fill-opacity:0"
       d="m -272.28962,91.5642 c -0.51788,-3.765448 -1.20265,-5.307045 -2.50912,-5.648694 -0.98827,-0.258438 -2.03317,-1.37356 -2.322,-2.478049 -0.28883,-1.104489 -0.99613,-1.717074 -1.57178,-1.361301 -0.57566,0.355773 -1.94082,0.16831 -3.03371,-0.416584 -3.10841,-1.663572 -12.24952,-1.817042 -14.7505,-0.247647 -1.60528,1.007335 -2.68158,1.095804 -4,0.328791 -1.74099,-1.012848 -1.5434,-1.184727 1.69623,-1.475539 0.825,-0.07406 1.5,-0.80965 1.5,-1.63465 0,-1.960167 1.45175,-2.965739 4.30902,-2.984687 1.26996,-0.0084 2.0472,-0.438938 1.72721,-0.956701 -0.32,-0.517764 1.34094,-1.080264 3.69098,-1.25 3.91853,-0.283025 4.24415,-0.515887 3.92739,-2.808612 -0.18997,-1.375 -0.75247,-2.65 -1.25,-2.833333 -0.49753,-0.183334 -0.9046,-0.793979 -0.9046,-1.356989 0,-0.563011 0.66059,-0.770164 1.46798,-0.460341 0.80738,0.309823 1.73394,0.132968 2.05901,-0.393011 0.32508,-0.525979 -0.11051,-0.956326 -0.96797,-0.956326 -0.85746,0 -1.55902,-0.476558 -1.55902,-1.059017 0,-0.582459 0.42742,-0.794856 0.94983,-0.471992 0.5224,0.322864 1.44113,-0.330984 2.04161,-1.452994 2.05018,-3.830804 9.98541,0.14218 9.95452,4.984003 -0.0125,1.956539 -2.4551,5.157525 -3.29484,4.31779 -0.35811,-0.358118 -0.65112,-0.158266 -0.65112,0.444115 0,0.602381 -0.70714,1.802381 -1.57143,2.666666 -1.50622,1.506221 -0.8303,2.120481 1.84926,1.680575 0.4278,-0.07023 1.03845,0.551477 1.35699,1.381579 0.31854,0.830101 1.1805,1.509275 1.91547,1.509275 1.60919,0 4.57837,3.982802 3.84899,5.162968 -0.28452,0.460367 -0.0408,0.837032 0.5417,0.837032 0.58246,0 1.05902,1.035 1.05902,2.3 0,1.265 0.43256,2.732561 0.96125,3.261246 1.44802,1.448024 -1.134,5.884337 -3.63471,6.244994 -1.85821,0.267996 -2.21234,-0.340515 -2.83566,-4.872567 l 0,0 z m 0.13098,-8.248539 c 0.75798,0.290864 1.37814,0.0307 1.37814,-0.578145 0,-0.608844 -0.45,-1.106989 -1,-1.106989 -0.55,0 -1.9375,-0.9375 -3.08333,-2.083333 -1.14584,-1.145834 -2.38263,-1.784041 -2.74843,-1.418239 -0.3658,0.365802 0.0526,1.190802 0.92969,1.833333 0.87713,0.642531 1.47011,2.014553 1.31773,3.048938 -0.19393,1.316401 0.0388,1.564883 0.7755,0.828145 0.5789,-0.578905 1.67272,-0.814574 2.4307,-0.52371 z m -3.62186,-14.685134 c 0,-0.55 -0.47656,-1 -1.05902,-1 -0.58245,0 -0.7809,0.45 -0.44098,1 0.33992,0.55 0.81648,1 1.05902,1 0.24254,0 0.44098,-0.45 0.44098,-1 z m 3,-2.559017 c 0,-0.857459 -0.45,-1.280902 -1,-0.940983 -0.55,0.339919 -1,1.041476 -1,1.559017 0,0.517541 0.45,0.940983 1,0.940983 0.55,0 1,-0.701558 1,-1.559017 z m -3,-1.5 c 0,-0.517541 -0.45,-0.940983 -1,-0.940983 -0.55,0 -1,0.701558 -1,1.559017 0,0.857459 0.45,1.280902 1,0.940983 0.55,-0.339919 1,-1.041476 1,-1.559017 z"
       id="path4626"
       inkscape:connector-curvature="0"
       transform="scale(0.8,0.8)" />
    <path
       style="fill:#ffffff;fill-opacity:0"
       d="m -272.28962,91.5642 c -0.51788,-3.765448 -1.20265,-5.307045 -2.50912,-5.648694 -0.98827,-0.258438 -2.03317,-1.37356 -2.322,-2.478049 -0.28883,-1.104489 -0.99613,-1.717074 -1.57178,-1.361301 -0.57566,0.355773 -1.94082,0.16831 -3.03371,-0.416584 -3.10841,-1.663572 -12.24952,-1.817042 -14.7505,-0.247647 -1.60528,1.007335 -2.68158,1.095804 -4,0.328791 -1.74099,-1.012848 -1.5434,-1.184727 1.69623,-1.475539 0.825,-0.07406 1.5,-0.80965 1.5,-1.63465 0,-1.960167 1.45175,-2.965739 4.30902,-2.984687 1.26996,-0.0084 2.0472,-0.438938 1.72721,-0.956701 -0.32,-0.517764 1.34094,-1.080264 3.69098,-1.25 3.91853,-0.283025 4.24415,-0.515887 3.92739,-2.808612 -0.18997,-1.375 -0.75247,-2.65 -1.25,-2.833333 -0.49753,-0.183334 -0.9046,-0.793979 -0.9046,-1.356989 0,-0.563011 0.66059,-0.770164 1.46798,-0.460341 0.80738,0.309823 1.73394,0.132968 2.05901,-0.393011 0.32508,-0.525979 -0.11051,-0.956326 -0.96797,-0.956326 -0.85746,0 -1.55902,-0.476558 -1.55902,-1.059017 0,-0.582459 0.42742,-0.794856 0.94983,-0.471992 0.5224,0.322864 1.44113,-0.330984 2.04161,-1.452994 2.05018,-3.830804 9.98541,0.14218 9.95452,4.984003 -0.0125,1.956539 -2.4551,5.157525 -3.29484,4.31779 -0.35811,-0.358118 -0.65112,-0.158266 -0.65112,0.444115 0,0.602381 -0.70714,1.802381 -1.57143,2.666666 -1.50622,1.506221 -0.8303,2.120481 1.84926,1.680575 0.4278,-0.07023 1.03845,0.551477 1.35699,1.381579 0.31854,0.830101 1.1805,1.509275 1.91547,1.509275 1.60919,0 4.57837,3.982802 3.84899,5.162968 -0.28452,0.460367 -0.0408,0.837032 0.5417,0.837032 0.58246,0 1.05902,1.035 1.05902,2.3 0,1.265 0.43256,2.732561 0.96125,3.261246 1.44802,1.448024 -1.134,5.884337 -3.63471,6.244994 -1.85821,0.267996 -2.21234,-0.340515 -2.83566,-4.872567 l 0,0 z m 0.13098,-8.248539 c 0.75798,0.290864 1.37814,0.0307 1.37814,-0.578145 0,-0.608844 -0.45,-1.106989 -1,-1.106989 -0.55,0 -1.9375,-0.9375 -3.08333,-2.083333 -1.14584,-1.145834 -2.38263,-1.784041 -2.74843,-1.418239 -0.3658,0.365802 0.0526,1.190802 0.92969,1.833333 0.87713,0.642531 1.47011,2.014553 1.31773,3.048938 -0.19393,1.316401 0.0388,1.564883 0.7755,0.828145 0.5789,-0.578905 1.67272,-0.814574 2.4307,-0.52371 z m -3.62186,-14.685134 c 0,-0.55 -0.47656,-1 -1.05902,-1 -0.58245,0 -0.7809,0.45 -0.44098,1 0.33992,0.55 0.81648,1 1.05902,1 0.24254,0 0.44098,-0.45 0.44098,-1 z m 3,-2.559017 c 0,-0.857459 -0.45,-1.280902 -1,-0.940983 -0.55,0.339919 -1,1.041476 -1,1.559017 0,0.517541 0.45,0.940983 1,0.940983 0.55,0 1,-0.701558 1,-1.559017 z m -3,-1.5 c 0,-0.517541 -0.45,-0.940983 -1,-0.940983 -0.55,0 -1,0.701558 -1,1.559017 0,0.857459 0.45,1.280902 1,0.940983 0.55,-0.339919 1,-1.041476 1,-1.559017 z"
       id="path4628"
       inkscape:connector-curvature="0"
       transform="scale(0.8,0.8)" />
    <path
       style="fill:#ffffff;fill-opacity:0"
       d="m -280.83796,82.054192 c -1.34339,-0.744037 -3.59004,-1.36874 -4.99254,-1.38823 -1.4025,-0.01949 -3.09,-0.575435 -3.75,-1.235435 -0.93333,-0.933333 -1.2,-0.933333 -1.2,0 0,1.739785 -1.83688,1.473467 -4.54845,-0.659451 l -2.36391,-1.859451 2.53112,-1.153253 c 1.39211,-0.634289 2.9163,-0.915196 3.38708,-0.624237 0.47078,0.290959 1.13862,0.07167 1.48408,-0.487296 0.34546,-0.558972 2.2247,-1.016312 4.17609,-1.016312 2.92302,0 3.43351,-0.298285 2.89814,-1.693424 -0.74154,-1.932415 1.39616,-11.242177 2.6249,-11.431576 0.44602,-0.06875 1.37345,-0.211045 2.06095,-0.316212 4.10977,-0.628668 6.2662,3.937987 3.1003,6.565457 -1.48692,1.23403 -1.60223,1.045657 -1.16859,-1.908974 0.28289,-1.927395 0.1126,-2.909576 -0.41328,-2.383702 -1.27617,1.276169 -1.27622,7.060639 -8e-5,8.336784 1.44785,1.447843 0.42433,3.842814 -1.35111,3.161516 -0.77948,-0.299116 -1.41724,-0.09449 -1.41724,0.454734 0,0.54922 1.2375,1.344367 2.75,1.766993 2.05471,0.574132 2.30754,0.872914 1,1.181733 -2.15685,0.50941 -2.31342,3.001243 -0.21635,3.443347 1.27222,0.26821 1.21981,0.517348 -0.30746,1.461553 -1.40732,0.870048 -2.4166,0.819494 -4.28365,-0.214564 z m -5.94254,-6.423665 c 0,-0.55 -0.45,-1 -1,-1 -0.55,0 -1,0.45 -1,1 0,0.55 0.45,1 1,1 0.55,0 1,-0.45 1,-1 z m 8,-6.440983 c 0,-0.242541 -0.45,-0.719098 -1,-1.059017 -0.55,-0.339919 -1,-0.141476 -1,0.440983 0,0.582459 0.45,1.059017 1,1.059017 0.55,0 1,-0.198442 1,-0.440983 z m -0.26644,-5.672049 c 0.0876,-1.162168 0.056,-1.949668 -0.0702,-1.75 -0.12613,0.199667 -0.8321,1.150532 -1.56881,2.113032 -1.12709,1.472516 -1.11596,1.75 0.0702,1.75 0.7753,0 1.48127,-0.950865 1.56881,-2.113032 l 0,0 z"
       id="path4630"
       inkscape:connector-curvature="0"
       transform="scale(0.8,0.8)" />
    <path
       style="fill:#ffffff;fill-opacity:0"
       d="m -277.24117,82.694159 c -0.31829,-0.515002 -1.35735,-0.959648 -2.30902,-0.988101 -5.29254,-0.158237 -9.32426,-1.388325 -8.82391,-2.692201 0.68235,-1.778172 -1.05393,-1.809217 -2.10671,-0.03767 -0.72701,1.223367 -7.29969,3.183 -7.29969,2.176391 0,-2.371593 2.6926,-5.522053 4.71953,-5.522053 1.34436,0 2.12688,-0.439501 1.78047,-1 -0.37764,-0.611044 1.16263,-1 3.96004,-1 4.49092,0 4.56524,-0.05235 3.9043,-2.75 -0.37056,-1.5125 -1.05414,-2.9 -1.51905,-3.083333 -0.46491,-0.183334 -0.84529,-0.772391 -0.84529,-1.309017 0,-0.536626 0.44644,-0.699771 0.99208,-0.362545 1.64672,1.01773 3.50792,-0.83667 3.50792,-3.495105 0,-1.943563 0.53794,-2.527036 2.41687,-2.621468 2.68245,-0.134816 7.10223,3.950357 7.05133,6.517491 -0.0456,2.301619 -2.24674,4.854104 -3.74945,4.347998 -0.70469,-0.237337 -1.2139,-0.05183 -1.13158,0.412229 0.42193,2.37854 -0.21756,3.507693 -1.67073,2.950059 -1.00529,-0.385767 -1.43132,-0.150958 -1.16667,0.643011 0.2293,0.687874 1.3544,1.25068 2.50023,1.25068 1.14583,0 2.42083,0.3375 2.83333,0.75 0.4125,0.4125 -0.225,0.75 -1.41666,0.75 -2.38032,0 -2.95065,1.761927 -0.83334,2.574418 0.73334,0.281406 1.33334,1.167283 1.33334,1.968615 0,1.638938 -1.24749,1.944222 -2.12734,0.520599 l 0,0 z m -2.356,-14.280299 c -0.71756,-0.717562 -1.18333,-0.776604 -1.18333,-0.15 0,1.334781 1.18261,2.517391 1.85,1.85 0.28417,-0.284166 -0.0158,-1.049166 -0.66667,-1.7 z m 6.81667,-2.464795 c 0,-1.271193 -0.27832,-1.332442 -1.48899,-0.327676 -0.81894,0.679663 -1.23785,1.642104 -0.9309,2.138757 0.78891,1.276475 2.41989,0.05582 2.41989,-1.811081 z m -3.01204,-1.296033 c 0.86343,-1.613344 0.77784,-1.869863 -0.46482,-1.393011 -0.83773,0.321466 -1.52314,1.211339 -1.52314,1.977495 0,1.953315 0.74737,1.733581 1.98796,-0.584484 z m -2.98796,-2.022505 c 0,-0.55 -0.47656,-1 -1.05902,-1 -0.58245,0 -0.7809,0.45 -0.44098,1 0.33992,0.55 0.81648,1 1.05902,1 0.24254,0 0.44098,-0.45 0.44098,-1 z"
       id="path4632"
       inkscape:connector-curvature="0"
       transform="scale(0.8,0.8)" />
    <path
       style="fill:#ffffff;fill-opacity:0"
       d="m -279.11383,82.96386 c -0.9557,-0.955697 -0.82206,-2.333333 0.22634,-2.333333 0.49116,0 1.15204,0.675 1.46862,1.5 0.58492,1.524275 -0.4803,2.047994 -1.69496,0.833333 z"
       id="path4634"
       inkscape:connector-curvature="0"
       transform="scale(0.8,0.8)" />
    <path
       style="fill:#ffffff;fill-opacity:0"
       d="m -279.11383,82.96386 c -0.9557,-0.955697 -0.82206,-2.333333 0.22634,-2.333333 0.49116,0 1.15204,0.675 1.46862,1.5 0.58492,1.524275 -0.4803,2.047994 -1.69496,0.833333 z"
       id="path4636"
       inkscape:connector-curvature="0"
       transform="scale(0.8,0.8)" />
    <path
       style="fill:#ffffff;fill-opacity:0"
       d="m -271.43519,106.57584 c -0.49624,-0.49625 -0.72692,-2.7409 -0.51262,-4.98812 0.31119,-3.263144 0.71964,-3.971726 2.02848,-3.519068 1.255,0.434036 1.19959,0.226145 -0.23659,-0.887627 -1.03149,-0.799925 -1.62793,-2.099368 -1.32544,-2.887651 0.30249,-0.788283 -0.11659,-2.384903 -0.93128,-3.548045 -0.8147,-1.163141 -1.18817,-2.114802 -0.82995,-2.114802 0.35823,0 -1.23383,-1.575 -3.53791,-3.5 -2.30407,-1.925 -4.82165,-3.5 -5.59461,-3.5 -0.77296,0 -1.40539,-0.354211 -1.40539,-0.787135 0,-1.379337 -11.40176,-0.877865 -12.88571,0.566739 -1.96391,1.911824 -3.61496,0.02443 -2.23471,-2.554596 1.27318,-2.378965 2.87856,-3.117048 10.09317,-4.640414 4.97757,-1.051013 5.55955,-1.458215 6.43203,-4.500392 0.77796,-2.712563 0.64597,-3.573929 -0.69827,-4.556857 -1.34388,-0.982669 -1.42564,-1.515371 -0.43203,-2.814957 2.07483,-2.713776 6.05859,-3.079657 8.78875,-0.807189 2.01927,1.680756 2.13694,2.033962 0.68677,2.061532 -0.9625,0.0183 -1.75,0.513593 -1.75,1.100657 0,0.612312 0.85269,0.796754 2,0.432612 1.14731,-0.364142 2,-0.179701 2,0.432612 0,0.587063 -0.43588,1.067388 -0.96861,1.067388 -0.53274,0 -0.68127,0.74882 -0.33006,1.664045 0.46663,1.216043 0.27782,1.441103 -0.70133,0.835955 -0.98397,-0.60813 -1.16716,-0.378 -0.68965,0.866375 0.45936,1.197083 -0.0862,2.029981 -1.85844,2.83749 -1.47961,0.674157 -2.06628,1.416435 -1.43019,1.809557 0.59316,0.366593 1.14934,1.607368 1.23596,2.757277 0.0866,1.14991 0.47376,1.895281 0.86031,1.656381 0.38655,-0.2389 2.31813,1.134325 4.29241,3.051612 1.97428,1.917286 3.59649,3.156425 3.60491,2.753642 0.008,-0.402784 0.4188,-0.0949 0.91194,0.684192 0.53037,0.837907 0.52412,2.39629 -0.0153,3.8151 -1.15745,3.044314 -1.16398,4.54218 -0.0167,3.833135 0.95512,-0.590299 2.10478,1.636089 2.10478,4.076043 0,0.812477 -0.48662,1.176483 -1.08138,0.808902 -0.64551,-0.398949 -1.00216,0.08109 -0.88484,1.190983 0.37428,3.540954 -0.002,4.308524 -1.78378,3.640694 -1.41803,-0.53143 -1.5319,-0.38321 -0.60028,0.78139 1.37432,1.71801 -0.77739,4.40955 -2.30441,2.88254 l 0,0 z m 3.65469,-5.33832 c 0,-0.21616 -0.69837,-0.66101 -1.55194,-0.98855 -0.88992,-0.341496 -1.29132,-0.17385 -0.94098,0.39301 0.58726,0.9502 2.49292,1.40545 2.49292,0.59554 z m -6.0037,-18.110936 c -1.28971,-1.372831 -2.80068,-2.496057 -3.3577,-2.496057 -0.55703,0 0.2761,1.345306 1.85141,2.989569 1.5753,1.644263 3.08627,2.767489 3.3577,2.496057 0.27143,-0.271432 -0.5617,-1.616738 -1.85141,-2.989569 l 0,0 z m -2.83,-15.795685 c -0.63192,-0.761415 -0.92785,-1.680486 -0.65762,-2.042381 0.27023,-0.361895 0.19034,-0.432009 -0.17753,-0.155809 -0.36786,0.2762 -1.55834,-0.2863 -2.64551,-1.25 -1.9188,-1.700896 -1.9421,-1.686324 -0.79596,0.497818 0.64938,1.2375 1.61486,2.25 2.14551,2.25 0.53064,0 0.96481,0.99 0.96481,2.2 0,1.666364 0.2808,1.919206 1.15762,1.042382 0.87226,-0.872259 0.8744,-1.49888 0.009,-2.54201 l -2e-5,0 z m 1.8337,-5.307361 c 0,-0.216156 -0.675,-0.393011 -1.5,-0.393011 -0.825,0 -1.5,0.435877 -1.5,0.968615 0,0.532739 0.675,0.709594 1.5,0.393011 0.825,-0.316582 1.5,-0.752459 1.5,-0.968615 z"
       id="path4638"
       inkscape:connector-curvature="0"
       transform="scale(0.8,0.8)" />
    <path
       style="fill:#ffffff;fill-opacity:0"
       d="m -271.43519,106.57584 c -0.49624,-0.49625 -0.72692,-2.7409 -0.51262,-4.98812 0.31119,-3.263144 0.71964,-3.971726 2.02848,-3.519068 1.255,0.434036 1.19959,0.226145 -0.23659,-0.887627 -1.03149,-0.799925 -1.62793,-2.099368 -1.32544,-2.887651 0.30249,-0.788283 -0.11659,-2.384903 -0.93128,-3.548045 -0.8147,-1.163141 -1.18817,-2.114802 -0.82995,-2.114802 0.35823,0 -1.23383,-1.575 -3.53791,-3.5 -2.30407,-1.925 -4.82165,-3.5 -5.59461,-3.5 -0.77296,0 -1.40539,-0.354211 -1.40539,-0.787135 0,-1.379337 -11.40176,-0.877865 -12.88571,0.566739 -1.96391,1.911824 -3.61496,0.02443 -2.23471,-2.554596 1.27318,-2.378965 2.87856,-3.117048 10.09317,-4.640414 4.97757,-1.051013 5.55955,-1.458215 6.43203,-4.500392 0.77796,-2.712563 0.64597,-3.573929 -0.69827,-4.556857 -1.34388,-0.982669 -1.42564,-1.515371 -0.43203,-2.814957 2.07483,-2.713776 6.05859,-3.079657 8.78875,-0.807189 2.01927,1.680756 2.13694,2.033962 0.68677,2.061532 -0.9625,0.0183 -1.75,0.513593 -1.75,1.100657 0,0.612312 0.85269,0.796754 2,0.432612 1.14731,-0.364142 2,-0.179701 2,0.432612 0,0.587063 -0.43588,1.067388 -0.96861,1.067388 -0.53274,0 -0.68127,0.74882 -0.33006,1.664045 0.46663,1.216043 0.27782,1.441103 -0.70133,0.835955 -0.98397,-0.60813 -1.16716,-0.378 -0.68965,0.866375 0.45936,1.197083 -0.0862,2.029981 -1.85844,2.83749 -1.47961,0.674157 -2.06628,1.416435 -1.43019,1.809557 0.59316,0.366593 1.14934,1.607368 1.23596,2.757277 0.0866,1.14991 0.47376,1.895281 0.86031,1.656381 0.38655,-0.2389 2.31813,1.134325 4.29241,3.051612 1.97428,1.917286 3.59649,3.156425 3.60491,2.753642 0.008,-0.402784 0.4188,-0.0949 0.91194,0.684192 0.53037,0.837907 0.52412,2.39629 -0.0153,3.8151 -1.15745,3.044314 -1.16398,4.54218 -0.0167,3.833135 0.95512,-0.590299 2.10478,1.636089 2.10478,4.076043 0,0.812477 -0.48662,1.176483 -1.08138,0.808902 -0.64551,-0.398949 -1.00216,0.08109 -0.88484,1.190983 0.37428,3.540954 -0.002,4.308524 -1.78378,3.640694 -1.41803,-0.53143 -1.5319,-0.38321 -0.60028,0.78139 1.37432,1.71801 -0.77739,4.40955 -2.30441,2.88254 l 0,0 z m 3.65469,-5.33832 c 0,-0.21616 -0.69837,-0.66101 -1.55194,-0.98855 -0.88992,-0.341496 -1.29132,-0.17385 -0.94098,0.39301 0.58726,0.9502 2.49292,1.40545 2.49292,0.59554 z m -6.0037,-18.110936 c -1.28971,-1.372831 -2.80068,-2.496057 -3.3577,-2.496057 -0.55703,0 0.2761,1.345306 1.85141,2.989569 1.5753,1.644263 3.08627,2.767489 3.3577,2.496057 0.27143,-0.271432 -0.5617,-1.616738 -1.85141,-2.989569 l 0,0 z m -2.83,-15.795685 c -0.63192,-0.761415 -0.92785,-1.680486 -0.65762,-2.042381 0.27023,-0.361895 0.19034,-0.432009 -0.17753,-0.155809 -0.36786,0.2762 -1.55834,-0.2863 -2.64551,-1.25 -1.9188,-1.700896 -1.9421,-1.686324 -0.79596,0.497818 0.64938,1.2375 1.61486,2.25 2.14551,2.25 0.53064,0 0.96481,0.99 0.96481,2.2 0,1.666364 0.2808,1.919206 1.15762,1.042382 0.87226,-0.872259 0.8744,-1.49888 0.009,-2.54201 l -2e-5,0 z m 1.8337,-5.307361 c 0,-0.216156 -0.675,-0.393011 -1.5,-0.393011 -0.825,0 -1.5,0.435877 -1.5,0.968615 0,0.532739 0.675,0.709594 1.5,0.393011 0.825,-0.316582 1.5,-0.752459 1.5,-0.968615 z"
       id="path4640"
       inkscape:connector-curvature="0"
       transform="scale(0.8,0.8)" />
    <rect
       style="fill:#ffffff;fill-opacity:0"
       id="rect4642"
       width="0"
       height="0"
       x="-237"
       y="47"
       transform="scale(0.8,0.8)" />
    <rect
       style="fill:#ffffff;fill-opacity:0"
       id="rect4644"
       width="190"
       height="76"
       x="-241"
       y="44"
       transform="scale(0.8,0.8)" />
    <rect
       style="fill:#ffffff;fill-opacity:0"
       id="rect4657"
       width="189"
       height="73"
       x="-237"
       y="43"
       transform="scale(0.8,0.8)" />
    <rect
       style="fill:#ffffff;fill-opacity:0"
       id="rect4659"
       width="188"
       height="67"
       x="-404"
       y="32"
       transform="scale(0.8,0.8)" />
  </g>
  <g
     inkscape:groupmode="layer"
     id="layer3"
     inkscape:label="Layer#1">
    <g
       id="g4520"
       transform="translate(115.05807,38.916986)">
      <g
         style="fill:#000000;stroke:none"
         id="g3087"
         transform="matrix(0.07671759,0,0,-0.062826,-110.99775,24.605538)">
        <path
           id="path3089"
           d="M 275,986 C 212,969 163,942 140,913 105,868 80,800 75,731 72,695 67,657 64,646 56,620 71,426 80,437 c 7,8 34,117 45,184 3,19 14,45 25,57 11,12 20,25 20,30 0,17 35,40 107,70 65,27 74,28 92,15 12,-8 21,-21 21,-29 0,-11 6,-13 22,-8 22,7 22,6 5,-17 -10,-13 -25,-36 -35,-51 -9,-16 -25,-28 -34,-28 -10,0 -18,-4 -18,-10 0,-13 -89,-3 -107,12 -10,8 -13,23 -9,47 6,36 6,36 -9,11 -8,-14 -13,-38 -10,-55 3,-16 2,-24 -1,-17 -8,17 -24,15 -24,-2 0,-8 10,-22 22,-30 12,-9 19,-19 15,-22 -4,-4 -13,-1 -22,6 -21,18 -31,5 -11,-15 22,-22 20,-35 -4,-35 -23,0 -24,-3 -7,-33 17,-32 24,-35 79,-35 27,0 51,-2 54,-4 2,-3 7,-28 11,-57 7,-57 -13,-93 -46,-84 -49,13 -24,-49 28,-68 40,-16 17,-20 -37,-7 -35,9 -51,17 -47,25 2,7 0,13 -6,13 -6,0 -1,16 11,36 12,19 19,38 16,41 -9,10 -79,-17 -93,-36 -7,-9 -13,-24 -13,-34 0,-27 -18,-11 -25,24 -4,17 -9,28 -11,26 -9,-9 17,-92 36,-117 17,-22 20,-23 20,-6 0,18 2,18 26,-5 16,-15 23,-18 19,-7 -7,19 10,33 27,22 7,-4 24,-9 37,-10 14,-2 27,-7 29,-12 1,-5 16,-6 33,-4 26,4 30,2 27,-14 -3,-15 -12,-19 -37,-17 -19,1 -37,6 -41,12 -6,11 -40,5 -40,-6 0,-14 43,-73 53,-73 7,0 0,-11 -15,-24 -31,-28 -22,-44 27,-48 15,-2 30,-8 32,-15 7,-18 23,-16 40,5 13,16 14,15 8,-4 -4,-16 0,-23 15,-27 17,-4 24,1 32,23 6,18 15,27 23,24 7,-3 19,4 25,16 7,13 17,19 28,16 16,-6 27,8 88,116 20,34 53,68 67,68 18,0 51,30 60,53 4,10 1,46 -7,80 -8,34 -17,94 -20,132 -7,72 -51,301 -66,340 -20,53 -89,109 -90,73 0,-7 -5,-5 -11,5 -6,9 -14,15 -18,13 -4,-3 -31,4 -60,14 -56,22 -95,23 -156,6 z"
           inkscape:connector-curvature="0" />
      </g>
      <text
         style="font-size:16.78627205px;font-style:italic;font-variant:normal;font-weight:normal;font-stretch:normal;line-height:2.99999993%;letter-spacing:0px;word-spacing:0px;fill:#d40000;fill-opacity:1;stroke:none;font-family:Bitstream Charter;-inkscape-font-specification:Century Schoolbook L Bold Italic"
         xml:space="preserve"
         id="text3113"
         transform="scale(0.93475856,1.069795)"
         y="-18.461443"
         x="-57.703621"
         sodipodi:linespacing="2.9999999%"><tspan
           style="font-size:16.78627205px;font-style:normal;font-variant:normal;font-weight:bold;font-stretch:normal;writing-mode:lr-tb;fill:#d40000;font-family:Serif;-inkscape-font-specification:Serif Bold"
           id="tspan3115"
           dx="0"
           y="-18.461443"
           x="-57.703621">Shaheed Hospital</tspan></text>
      <text
         style="font-size:80.21595001px;font-style:normal;font-weight:normal;line-height:2.99999993%;letter-spacing:0px;word-spacing:0px;fill:#000000;fill-opacity:1;stroke:none;font-family:Sans"
         xml:space="preserve"
         id="text3885"
         transform="scale(0.94800065,1.0548516)"
         y="-1.2061975"
         x="-44.155243"
         sodipodi:linespacing="2.9999999%"><tspan
           style="font-size:12px;font-style:normal;font-variant:normal;font-weight:normal;font-stretch:normal;fill:#008000;font-family:Serif;-inkscape-font-specification:Serif"
           id="tspan3887"
           y="-1.2061975"
           x="-44.155243">मेहनतकशों के स्वास्थ्य के लिए,  </tspan></text>
      <text
         style="font-size:80.21595001px;font-style:normal;font-weight:normal;line-height:2.99999993%;letter-spacing:0px;word-spacing:0px;fill:#000000;fill-opacity:1;stroke:none;font-family:Sans"
         xml:space="preserve"
         transform="scale(0.94800066,1.0548516)"
         y="-1.2061975"
         x="-49.218533"
         sodipodi:linespacing="2.9999999%"
         id="text4843"><tspan
           style="font-size:11.58466625px;font-style:normal;font-variant:normal;font-weight:normal;font-stretch:normal;fill:#ff2a2a;font-family:Serif;-inkscape-font-specification:Serif"
           y="-1.2061975"
           x="-49.218533"
           id="tspan4845" /></text>
      <text
         style="font-size:40px;font-style:normal;font-weight:normal;line-height:2.99999993%;letter-spacing:0px;word-spacing:0px;fill:#000000;fill-opacity:1;stroke:none;font-family:Sans"
         xml:space="preserve"
         id="text3889-5"
         transform="scale(0.8,0.8)"
         y="37.145267"
         x="488.66504"
         sodipodi:linespacing="2.9999999%"><tspan
           id="tspan3891-1"
           y="37.145267"
           x="488.66504" /><tspan
           id="tspan3893-7"
           y="38.345268"
           x="488.66504" /></text>
      <text
         xml:space="preserve"
         style="font-size:32px;font-style:normal;font-weight:normal;line-height:2.99999993%;letter-spacing:0px;word-spacing:0px;fill:#000000;fill-opacity:1;stroke:none;font-family:Sans"
         x="-46.258068"
         y="14.683014"
         id="text5073"
         sodipodi:linespacing="2.9999999%"><tspan
           sodipodi:role="line"
           id="tspan5075"
           x="-46.258068"
           y="14.683014"
           style="font-size:12px;font-style:normal;font-variant:normal;font-weight:normal;font-stretch:normal;fill:#008000;font-family:Serif;-inkscape-font-specification:Serif">मेहनतकशों का अपना कार्यक्रम</tspan></text>
    </g>
  </g>
</svg>
